<svg width="674" height="43" viewBox="0 0 674 43" fill="none" xmlns="http://www.w3.org/2000/svg">
<mask id="path-1-outside-1_246_4090" maskUnits="userSpaceOnUse" x="0" y="0" width="674" height="43" fill="black">
<rect fill="white" width="674" height="43"/>
<path d="M27.9886 42C19.0644 42 12.3352 40.4276 7.80112 37.2829C3.26704 34.1145 1 28.8535 1 21.5C1 14.1465 3.26704 8.89735 7.80112 5.7526C12.3352 2.5842 19.0644 1 27.9886 1C31.0833 1 34.106 1.28374 37.0568 1.85121C40.0075 2.39504 42.9822 3.28172 45.981 4.51125C46.7007 4.81863 47.0605 5.26788 47.0605 5.859C47.0605 6.56834 46.6767 6.92301 45.909 6.92301C45.7411 6.92301 45.5132 6.8639 45.2253 6.74567C42.4665 5.61073 39.5997 4.75952 36.6249 4.19204C33.6502 3.62457 30.7714 3.34083 27.9886 3.34083C19.4482 3.34083 13.3188 4.78316 9.60036 7.66782C5.90592 10.5288 4.05871 15.1396 4.05871 21.5C4.05871 27.8604 5.90592 32.483 9.60036 35.3676C13.3188 38.2287 19.4482 39.6592 27.9886 39.6592C30.7714 39.6592 33.6502 39.3754 36.6249 38.808C39.5997 38.2405 42.4665 37.3893 45.2253 36.2543C45.5132 36.1597 45.7291 36.1125 45.873 36.1125C46.6887 36.1125 47.0965 36.4671 47.0965 37.1765C47.0965 37.7439 46.7247 38.1814 45.981 38.4888C42.9822 39.7183 40.0075 40.6168 37.0568 41.1843C34.106 41.7281 31.0833 42 27.9886 42Z"/>
<path d="M84.8762 42C75.7601 42 69.0789 40.3094 64.8327 36.9282C60.5865 33.547 58.4634 28.4043 58.4634 21.5C58.4634 14.5957 60.5865 9.453 64.8327 6.0718C69.0789 2.6906 75.7601 1 84.8762 1C93.9924 1 100.674 2.6906 104.92 6.0718C109.19 9.453 111.325 14.5957 111.325 21.5C111.325 28.4043 109.19 33.547 104.92 36.9282C100.674 40.3094 93.9924 42 84.8762 42ZM84.8762 39.6592C92.7449 39.6592 98.6104 38.2878 102.473 35.545C106.335 32.7785 108.266 28.0969 108.266 21.5C108.266 14.9031 106.335 10.2333 102.473 7.49048C98.6104 4.72405 92.7449 3.34083 84.8762 3.34083C77.0075 3.34083 71.142 4.72405 67.2797 7.49048C63.4413 10.2333 61.5221 14.9031 61.5221 21.5C61.5221 28.0969 63.4413 32.7785 67.2797 35.545C71.142 38.2878 77.0075 39.6592 84.8762 39.6592Z"/>
<path d="M127.55 41.2552C126.854 41.2552 126.41 41.0187 126.218 40.5458C126.05 40.0493 125.967 39.4582 125.967 38.7725V4.05017C125.967 2.5842 126.458 1.85121 127.442 1.85121C128.042 1.85121 128.737 2.20588 129.529 2.91522L166.341 36.7154V4.44031C166.341 3.75461 166.413 3.13985 166.557 2.59602C166.725 2.02855 167.169 1.74481 167.889 1.74481C168.513 1.74481 168.92 2.01672 169.112 2.56055C169.304 3.08074 169.4 3.70732 169.4 4.44031V38.9853C169.4 40.4986 168.992 41.2552 168.177 41.2552C167.625 41.2552 166.941 40.8887 166.126 40.1557L129.025 6.2846V38.7725C129.025 39.4582 128.917 40.0493 128.701 40.5458C128.509 41.0187 128.126 41.2552 127.55 41.2552Z"/>
<path d="M209.447 41.9645C206.04 41.9645 202.67 41.7517 199.335 41.3261C196.025 40.9005 193.086 40.3803 190.519 39.7656C187.976 39.1508 186.129 38.5833 184.977 38.0631C184.33 37.7558 184.006 37.2947 184.006 36.6799C184.006 35.9942 184.318 35.6514 184.941 35.6514C185.109 35.6514 185.277 35.6869 185.445 35.7578C186.693 36.2543 188.624 36.81 191.239 37.4247C193.854 38.0159 196.804 38.536 200.091 38.9853C203.401 39.4109 206.7 39.6237 209.987 39.6237C213.177 39.6237 216.128 39.34 218.839 38.7725C221.574 38.1814 223.769 37.2001 225.424 35.8287C227.079 34.4573 227.907 32.5894 227.907 30.2249C227.907 28.357 227.283 26.9028 226.036 25.8625C224.788 24.7984 223.109 24.0063 220.998 23.4862C218.887 22.966 216.512 22.5995 213.873 22.3867C211.258 22.1739 208.547 22.0202 205.74 21.9256C202.934 21.8074 200.211 21.6182 197.572 21.3581C194.957 21.098 192.594 20.6606 190.483 20.0458C188.372 19.4311 186.693 18.5089 185.445 17.2794C184.198 16.0499 183.574 14.4066 183.574 12.3495C183.574 10.0796 184.186 8.21165 185.409 6.74567C186.657 5.25605 188.324 4.09746 190.411 3.2699C192.498 2.41869 194.837 1.82757 197.428 1.49654C200.019 1.16551 202.67 1 205.381 1C208.355 1 211.246 1.17734 214.053 1.53201C216.86 1.86303 219.379 2.30046 221.61 2.84429C223.841 3.38812 225.568 3.94377 226.792 4.51125C227.175 4.67676 227.367 4.99596 227.367 5.46886C227.367 5.79988 227.247 6.10727 227.007 6.391C226.792 6.67474 226.48 6.81661 226.072 6.81661C225.832 6.81661 225.628 6.76932 225.46 6.67474C222.941 5.63437 219.895 4.81863 216.32 4.22751C212.746 3.63639 209.147 3.34083 205.525 3.34083C202.214 3.34083 199.119 3.60092 196.24 4.12111C193.362 4.64129 191.035 5.53979 189.259 6.81661C187.508 8.09343 186.633 9.86678 186.633 12.1367C186.633 13.7682 187.256 15.0332 188.504 15.9317C189.751 16.8302 191.431 17.504 193.542 17.9533C195.653 18.3789 198.016 18.6863 200.631 18.8754C203.27 19.0409 205.992 19.2065 208.799 19.372C211.606 19.5138 214.317 19.7503 216.932 20.0813C219.571 20.4123 221.946 20.9443 224.057 21.6773C226.168 22.4103 227.847 23.4625 229.095 24.8339C230.342 26.2053 230.966 28.0023 230.966 30.2249C230.966 32.4948 230.366 34.3864 229.167 35.8997C227.991 37.4129 226.384 38.6188 224.345 39.5173C222.305 40.3922 220.002 41.0187 217.436 41.3971C214.869 41.7754 212.206 41.9645 209.447 41.9645Z"/>
<path d="M262.916 41.2552C262.292 41.2552 261.872 40.9951 261.657 40.4749C261.465 39.9311 261.369 39.3163 261.369 38.6306V4.08564H241.973C241.301 4.08564 240.689 4.062 240.138 4.01471C239.586 3.96742 239.31 3.64821 239.31 3.05709C239.31 2.3714 239.598 1.98126 240.174 1.88668C240.773 1.7921 241.373 1.74481 241.973 1.74481H283.751C284.447 1.74481 285.047 1.7921 285.55 1.88668C286.078 1.98126 286.342 2.3714 286.342 3.05709C286.342 3.64821 286.078 3.96742 285.55 4.01471C285.047 4.062 284.447 4.08564 283.751 4.08564H264.427V38.6306C264.427 39.3163 264.343 39.9311 264.175 40.4749C264.031 40.9951 263.612 41.2552 262.916 41.2552Z"/>
<path d="M307.461 42C305.566 42 303.634 41.8227 301.667 41.468C299.7 41.137 298.045 40.7114 296.701 40.1912C295.382 39.6473 294.722 39.0917 294.722 38.5242C294.722 38.2641 294.842 38.0277 295.082 37.8149C295.322 37.5784 295.634 37.5075 296.018 37.6021C296.857 37.7676 297.733 38.0159 298.645 38.3469C299.556 38.6779 300.696 38.9853 302.063 39.269C303.454 39.5291 305.254 39.6592 307.461 39.6592C312.043 39.6592 315.258 38.808 317.105 37.1055C318.976 35.4031 319.912 33.2042 319.912 30.5087C319.912 28.8299 319.552 27.2693 318.832 25.827C318.112 24.3847 316.817 23.2261 314.946 22.3512C313.074 21.4764 310.412 21.0389 306.957 21.0389H301.847C301.415 21.0389 301.091 20.9207 300.876 20.6843C300.684 20.4478 300.588 20.1877 300.588 19.904C300.588 19.6202 300.684 19.3602 300.876 19.1237C301.091 18.8873 301.415 18.769 301.847 18.769H306.633C309.872 18.769 312.379 18.4025 314.154 17.6695C315.929 16.9366 317.153 15.9671 317.824 14.7612C318.52 13.5554 318.868 12.2549 318.868 10.8599C318.868 9.58305 318.556 8.36534 317.932 7.20675C317.309 6.02451 316.181 5.05508 314.55 4.29844C312.918 3.54181 310.591 3.16349 307.569 3.16349C304.978 3.16349 302.903 3.35265 301.343 3.73097C299.808 4.08564 298.345 4.58218 296.953 5.22059C296.617 5.3861 296.306 5.46886 296.018 5.46886C295.658 5.46886 295.37 5.36246 295.154 5.14965C294.962 4.93685 294.866 4.71223 294.866 4.47578C294.866 3.88466 295.31 3.3763 296.198 2.95069C297.085 2.50144 298.201 2.13495 299.544 1.85121C300.912 1.56747 302.303 1.35467 303.718 1.2128C305.134 1.07093 306.381 1 307.461 1C311.059 1 313.866 1.48472 315.881 2.45415C317.92 3.39994 319.348 4.61765 320.163 6.10727C321.003 7.57324 321.423 9.09833 321.423 10.6825C321.423 11.9357 321.183 13.1889 320.703 14.442C320.223 15.6952 319.36 16.8065 318.112 17.776C316.889 18.7217 315.15 19.4074 312.895 19.833C316.037 20.3532 318.4 21.5591 319.983 23.4507C321.567 25.3423 322.359 27.7304 322.359 30.6151C322.359 32.7431 321.855 34.6701 320.847 36.3962C319.84 38.1223 318.232 39.4937 316.025 40.5104C313.842 41.5035 310.987 42 307.461 42Z"/>
<path d="M337.144 41.2552C336.4 41.2552 335.968 41.1961 335.848 41.0779C335.729 40.936 335.669 40.5577 335.669 39.9429V4.05017C335.669 3.43541 335.777 2.9034 335.992 2.45415C336.208 1.98126 336.664 1.74481 337.36 1.74481C337.936 1.74481 338.307 1.99308 338.475 2.48962C338.643 2.96251 338.727 3.4827 338.727 4.05017V38.9144H369.638C370.118 38.9144 370.478 39.0444 370.718 39.3045C370.982 39.5409 371.114 39.801 371.114 40.0848C371.114 40.3922 370.982 40.6641 370.718 40.9005C370.478 41.137 370.118 41.2552 369.638 41.2552H337.144Z"/>
<path d="M382.804 41.2552C382.061 41.2552 381.629 41.1961 381.509 41.0779C381.389 40.936 381.329 40.5577 381.329 39.9429V4.05017C381.329 3.43541 381.437 2.9034 381.653 2.45415C381.869 1.98126 382.325 1.74481 383.02 1.74481C383.596 1.74481 383.968 1.99308 384.136 2.48962C384.304 2.96251 384.388 3.4827 384.388 4.05017V38.9144H415.299C415.778 38.9144 416.138 39.0444 416.378 39.3045C416.642 39.5409 416.774 39.801 416.774 40.0848C416.774 40.3922 416.642 40.6641 416.378 40.9005C416.138 41.137 415.778 41.2552 415.299 41.2552H382.804Z"/>
<path d="M424.542 41.6099C423.847 41.6099 423.463 41.3025 423.391 40.6877C423.319 40.0493 423.451 39.4345 423.787 38.8434L443.614 3.55363C443.998 2.86794 444.298 2.39504 444.514 2.13495C444.73 1.87486 445.054 1.74481 445.486 1.74481C445.821 1.74481 446.121 1.87486 446.385 2.13495C446.649 2.3714 446.973 2.84429 447.357 3.55363L467.22 38.8789C467.484 39.3281 467.616 39.7892 467.616 40.2621C467.616 41.1606 467.208 41.6099 466.393 41.6099C466.081 41.6099 465.757 41.4916 465.421 41.2552C465.085 41.0424 464.749 40.6404 464.414 40.0493L458.296 29.1254H432.675L426.486 40.1912C425.982 41.137 425.334 41.6099 424.542 41.6099ZM433.718 27.0329H457.253L445.486 5.859L433.718 27.0329Z"/>
<path d="M489.203 41.2552C488.579 41.2552 488.159 40.9951 487.943 40.4749C487.751 39.9311 487.655 39.3163 487.655 38.6306V4.08564H468.26C467.588 4.08564 466.976 4.062 466.424 4.01471C465.873 3.96742 465.597 3.64821 465.597 3.05709C465.597 2.3714 465.885 1.98126 466.46 1.88668C467.06 1.7921 467.66 1.74481 468.26 1.74481H510.038C510.734 1.74481 511.333 1.7921 511.837 1.88668C512.365 1.98126 512.629 2.3714 512.629 3.05709C512.629 3.64821 512.365 3.96742 511.837 4.01471C511.333 4.062 510.734 4.08564 510.038 4.08564H490.714V38.6306C490.714 39.3163 490.63 39.9311 490.462 40.4749C490.318 40.9951 489.898 41.2552 489.203 41.2552Z"/>
<path d="M521.909 41.2552C521.333 41.2552 520.745 41.2197 520.145 41.1488C519.57 41.0779 519.282 40.6995 519.282 40.0138C519.282 39.4227 519.557 39.0917 520.109 39.0208C520.685 38.9498 521.285 38.9144 521.909 38.9144H534.755V4.08564H521.909C521.285 4.08564 520.685 4.05017 520.109 3.97924C519.557 3.9083 519.282 3.57728 519.282 2.98616C519.282 2.30046 519.57 1.92215 520.145 1.85121C520.745 1.78028 521.333 1.74481 521.909 1.74481H550.66C551.356 1.74481 551.956 1.78028 552.46 1.85121C552.987 1.92215 553.251 2.27682 553.251 2.91522C553.251 3.55363 552.987 3.9083 552.46 3.97924C551.956 4.05017 551.356 4.08564 550.66 4.08564H537.814V38.9144H550.66C551.356 38.9144 551.956 38.9498 552.46 39.0208C552.987 39.0917 553.251 39.4464 553.251 40.0848C553.251 40.7232 552.987 41.0779 552.46 41.1488C551.956 41.2197 551.356 41.2552 550.66 41.2552H521.909Z"/>
<path d="M588.476 42C579.36 42 572.679 40.3094 568.433 36.9282C564.186 33.547 562.063 28.4043 562.063 21.5C562.063 14.5957 564.186 9.453 568.433 6.0718C572.679 2.6906 579.36 1 588.476 1C597.592 1 604.273 2.6906 608.52 6.0718C612.79 9.453 614.925 14.5957 614.925 21.5C614.925 28.4043 612.79 33.547 608.52 36.9282C604.273 40.3094 597.592 42 588.476 42ZM588.476 39.6592C596.345 39.6592 602.21 38.2878 606.073 35.545C609.935 32.7785 611.866 28.0969 611.866 21.5C611.866 14.9031 609.935 10.2333 606.073 7.49048C602.21 4.72405 596.345 3.34083 588.476 3.34083C580.607 3.34083 574.742 4.72405 570.879 7.49048C567.041 10.2333 565.122 14.9031 565.122 21.5C565.122 28.0969 567.041 32.7785 570.879 35.545C574.742 38.2878 580.607 39.6592 588.476 39.6592Z"/>
<path d="M631.15 41.2552C630.454 41.2552 630.01 41.0187 629.818 40.5458C629.65 40.0493 629.566 39.4582 629.566 38.7725V4.05017C629.566 2.5842 630.058 1.85121 631.042 1.85121C631.641 1.85121 632.337 2.20588 633.129 2.91522L669.941 36.7154V4.44031C669.941 3.75461 670.013 3.13985 670.157 2.59602C670.325 2.02855 670.769 1.74481 671.489 1.74481C672.112 1.74481 672.52 2.01672 672.712 2.56055C672.904 3.08074 673 3.70732 673 4.44031V38.9853C673 40.4986 672.592 41.2552 671.777 41.2552C671.225 41.2552 670.541 40.8887 669.725 40.1557L632.625 6.2846V38.7725C632.625 39.4582 632.517 40.0493 632.301 40.5458C632.109 41.0187 631.725 41.2552 631.15 41.2552Z"/>
</mask>
<path d="M27.9886 42C19.0644 42 12.3352 40.4276 7.80112 37.2829C3.26704 34.1145 1 28.8535 1 21.5C1 14.1465 3.26704 8.89735 7.80112 5.7526C12.3352 2.5842 19.0644 1 27.9886 1C31.0833 1 34.106 1.28374 37.0568 1.85121C40.0075 2.39504 42.9822 3.28172 45.981 4.51125C46.7007 4.81863 47.0605 5.26788 47.0605 5.859C47.0605 6.56834 46.6767 6.92301 45.909 6.92301C45.7411 6.92301 45.5132 6.8639 45.2253 6.74567C42.4665 5.61073 39.5997 4.75952 36.6249 4.19204C33.6502 3.62457 30.7714 3.34083 27.9886 3.34083C19.4482 3.34083 13.3188 4.78316 9.60036 7.66782C5.90592 10.5288 4.05871 15.1396 4.05871 21.5C4.05871 27.8604 5.90592 32.483 9.60036 35.3676C13.3188 38.2287 19.4482 39.6592 27.9886 39.6592C30.7714 39.6592 33.6502 39.3754 36.6249 38.808C39.5997 38.2405 42.4665 37.3893 45.2253 36.2543C45.5132 36.1597 45.7291 36.1125 45.873 36.1125C46.6887 36.1125 47.0965 36.4671 47.0965 37.1765C47.0965 37.7439 46.7247 38.1814 45.981 38.4888C42.9822 39.7183 40.0075 40.6168 37.0568 41.1843C34.106 41.7281 31.0833 42 27.9886 42Z" fill="#F4F0FF"/>
<path d="M84.8762 42C75.7601 42 69.0789 40.3094 64.8327 36.9282C60.5865 33.547 58.4634 28.4043 58.4634 21.5C58.4634 14.5957 60.5865 9.453 64.8327 6.0718C69.0789 2.6906 75.7601 1 84.8762 1C93.9924 1 100.674 2.6906 104.92 6.0718C109.19 9.453 111.325 14.5957 111.325 21.5C111.325 28.4043 109.19 33.547 104.92 36.9282C100.674 40.3094 93.9924 42 84.8762 42ZM84.8762 39.6592C92.7449 39.6592 98.6104 38.2878 102.473 35.545C106.335 32.7785 108.266 28.0969 108.266 21.5C108.266 14.9031 106.335 10.2333 102.473 7.49048C98.6104 4.72405 92.7449 3.34083 84.8762 3.34083C77.0075 3.34083 71.142 4.72405 67.2797 7.49048C63.4413 10.2333 61.5221 14.9031 61.5221 21.5C61.5221 28.0969 63.4413 32.7785 67.2797 35.545C71.142 38.2878 77.0075 39.6592 84.8762 39.6592Z" fill="#F4F0FF"/>
<path d="M127.55 41.2552C126.854 41.2552 126.41 41.0187 126.218 40.5458C126.05 40.0493 125.967 39.4582 125.967 38.7725V4.05017C125.967 2.5842 126.458 1.85121 127.442 1.85121C128.042 1.85121 128.737 2.20588 129.529 2.91522L166.341 36.7154V4.44031C166.341 3.75461 166.413 3.13985 166.557 2.59602C166.725 2.02855 167.169 1.74481 167.889 1.74481C168.513 1.74481 168.92 2.01672 169.112 2.56055C169.304 3.08074 169.4 3.70732 169.4 4.44031V38.9853C169.4 40.4986 168.992 41.2552 168.177 41.2552C167.625 41.2552 166.941 40.8887 166.126 40.1557L129.025 6.2846V38.7725C129.025 39.4582 128.917 40.0493 128.701 40.5458C128.509 41.0187 128.126 41.2552 127.55 41.2552Z" fill="#F4F0FF"/>
<path d="M209.447 41.9645C206.04 41.9645 202.67 41.7517 199.335 41.3261C196.025 40.9005 193.086 40.3803 190.519 39.7656C187.976 39.1508 186.129 38.5833 184.977 38.0631C184.33 37.7558 184.006 37.2947 184.006 36.6799C184.006 35.9942 184.318 35.6514 184.941 35.6514C185.109 35.6514 185.277 35.6869 185.445 35.7578C186.693 36.2543 188.624 36.81 191.239 37.4247C193.854 38.0159 196.804 38.536 200.091 38.9853C203.401 39.4109 206.7 39.6237 209.987 39.6237C213.177 39.6237 216.128 39.34 218.839 38.7725C221.574 38.1814 223.769 37.2001 225.424 35.8287C227.079 34.4573 227.907 32.5894 227.907 30.2249C227.907 28.357 227.283 26.9028 226.036 25.8625C224.788 24.7984 223.109 24.0063 220.998 23.4862C218.887 22.966 216.512 22.5995 213.873 22.3867C211.258 22.1739 208.547 22.0202 205.74 21.9256C202.934 21.8074 200.211 21.6182 197.572 21.3581C194.957 21.098 192.594 20.6606 190.483 20.0458C188.372 19.4311 186.693 18.5089 185.445 17.2794C184.198 16.0499 183.574 14.4066 183.574 12.3495C183.574 10.0796 184.186 8.21165 185.409 6.74567C186.657 5.25605 188.324 4.09746 190.411 3.2699C192.498 2.41869 194.837 1.82757 197.428 1.49654C200.019 1.16551 202.67 1 205.381 1C208.355 1 211.246 1.17734 214.053 1.53201C216.86 1.86303 219.379 2.30046 221.61 2.84429C223.841 3.38812 225.568 3.94377 226.792 4.51125C227.175 4.67676 227.367 4.99596 227.367 5.46886C227.367 5.79988 227.247 6.10727 227.007 6.391C226.792 6.67474 226.48 6.81661 226.072 6.81661C225.832 6.81661 225.628 6.76932 225.46 6.67474C222.941 5.63437 219.895 4.81863 216.32 4.22751C212.746 3.63639 209.147 3.34083 205.525 3.34083C202.214 3.34083 199.119 3.60092 196.24 4.12111C193.362 4.64129 191.035 5.53979 189.259 6.81661C187.508 8.09343 186.633 9.86678 186.633 12.1367C186.633 13.7682 187.256 15.0332 188.504 15.9317C189.751 16.8302 191.431 17.504 193.542 17.9533C195.653 18.3789 198.016 18.6863 200.631 18.8754C203.27 19.0409 205.992 19.2065 208.799 19.372C211.606 19.5138 214.317 19.7503 216.932 20.0813C219.571 20.4123 221.946 20.9443 224.057 21.6773C226.168 22.4103 227.847 23.4625 229.095 24.8339C230.342 26.2053 230.966 28.0023 230.966 30.2249C230.966 32.4948 230.366 34.3864 229.167 35.8997C227.991 37.4129 226.384 38.6188 224.345 39.5173C222.305 40.3922 220.002 41.0187 217.436 41.3971C214.869 41.7754 212.206 41.9645 209.447 41.9645Z" fill="#F4F0FF"/>
<path d="M262.916 41.2552C262.292 41.2552 261.872 40.9951 261.657 40.4749C261.465 39.9311 261.369 39.3163 261.369 38.6306V4.08564H241.973C241.301 4.08564 240.689 4.062 240.138 4.01471C239.586 3.96742 239.31 3.64821 239.31 3.05709C239.31 2.3714 239.598 1.98126 240.174 1.88668C240.773 1.7921 241.373 1.74481 241.973 1.74481H283.751C284.447 1.74481 285.047 1.7921 285.55 1.88668C286.078 1.98126 286.342 2.3714 286.342 3.05709C286.342 3.64821 286.078 3.96742 285.55 4.01471C285.047 4.062 284.447 4.08564 283.751 4.08564H264.427V38.6306C264.427 39.3163 264.343 39.9311 264.175 40.4749C264.031 40.9951 263.612 41.2552 262.916 41.2552Z" fill="#F4F0FF"/>
<path d="M307.461 42C305.566 42 303.634 41.8227 301.667 41.468C299.7 41.137 298.045 40.7114 296.701 40.1912C295.382 39.6473 294.722 39.0917 294.722 38.5242C294.722 38.2641 294.842 38.0277 295.082 37.8149C295.322 37.5784 295.634 37.5075 296.018 37.6021C296.857 37.7676 297.733 38.0159 298.645 38.3469C299.556 38.6779 300.696 38.9853 302.063 39.269C303.454 39.5291 305.254 39.6592 307.461 39.6592C312.043 39.6592 315.258 38.808 317.105 37.1055C318.976 35.4031 319.912 33.2042 319.912 30.5087C319.912 28.8299 319.552 27.2693 318.832 25.827C318.112 24.3847 316.817 23.2261 314.946 22.3512C313.074 21.4764 310.412 21.0389 306.957 21.0389H301.847C301.415 21.0389 301.091 20.9207 300.876 20.6843C300.684 20.4478 300.588 20.1877 300.588 19.904C300.588 19.6202 300.684 19.3602 300.876 19.1237C301.091 18.8873 301.415 18.769 301.847 18.769H306.633C309.872 18.769 312.379 18.4025 314.154 17.6695C315.929 16.9366 317.153 15.9671 317.824 14.7612C318.52 13.5554 318.868 12.2549 318.868 10.8599C318.868 9.58305 318.556 8.36534 317.932 7.20675C317.309 6.02451 316.181 5.05508 314.55 4.29844C312.918 3.54181 310.591 3.16349 307.569 3.16349C304.978 3.16349 302.903 3.35265 301.343 3.73097C299.808 4.08564 298.345 4.58218 296.953 5.22059C296.617 5.3861 296.306 5.46886 296.018 5.46886C295.658 5.46886 295.37 5.36246 295.154 5.14965C294.962 4.93685 294.866 4.71223 294.866 4.47578C294.866 3.88466 295.31 3.3763 296.198 2.95069C297.085 2.50144 298.201 2.13495 299.544 1.85121C300.912 1.56747 302.303 1.35467 303.718 1.2128C305.134 1.07093 306.381 1 307.461 1C311.059 1 313.866 1.48472 315.881 2.45415C317.92 3.39994 319.348 4.61765 320.163 6.10727C321.003 7.57324 321.423 9.09833 321.423 10.6825C321.423 11.9357 321.183 13.1889 320.703 14.442C320.223 15.6952 319.36 16.8065 318.112 17.776C316.889 18.7217 315.15 19.4074 312.895 19.833C316.037 20.3532 318.4 21.5591 319.983 23.4507C321.567 25.3423 322.359 27.7304 322.359 30.6151C322.359 32.7431 321.855 34.6701 320.847 36.3962C319.84 38.1223 318.232 39.4937 316.025 40.5104C313.842 41.5035 310.987 42 307.461 42Z" fill="#F4F0FF"/>
<path d="M337.144 41.2552C336.4 41.2552 335.968 41.1961 335.848 41.0779C335.729 40.936 335.669 40.5577 335.669 39.9429V4.05017C335.669 3.43541 335.777 2.9034 335.992 2.45415C336.208 1.98126 336.664 1.74481 337.36 1.74481C337.936 1.74481 338.307 1.99308 338.475 2.48962C338.643 2.96251 338.727 3.4827 338.727 4.05017V38.9144H369.638C370.118 38.9144 370.478 39.0444 370.718 39.3045C370.982 39.5409 371.114 39.801 371.114 40.0848C371.114 40.3922 370.982 40.6641 370.718 40.9005C370.478 41.137 370.118 41.2552 369.638 41.2552H337.144Z" fill="#F4F0FF"/>
<path d="M382.804 41.2552C382.061 41.2552 381.629 41.1961 381.509 41.0779C381.389 40.936 381.329 40.5577 381.329 39.9429V4.05017C381.329 3.43541 381.437 2.9034 381.653 2.45415C381.869 1.98126 382.325 1.74481 383.02 1.74481C383.596 1.74481 383.968 1.99308 384.136 2.48962C384.304 2.96251 384.388 3.4827 384.388 4.05017V38.9144H415.299C415.778 38.9144 416.138 39.0444 416.378 39.3045C416.642 39.5409 416.774 39.801 416.774 40.0848C416.774 40.3922 416.642 40.6641 416.378 40.9005C416.138 41.137 415.778 41.2552 415.299 41.2552H382.804Z" fill="#F4F0FF"/>
<path d="M424.542 41.6099C423.847 41.6099 423.463 41.3025 423.391 40.6877C423.319 40.0493 423.451 39.4345 423.787 38.8434L443.614 3.55363C443.998 2.86794 444.298 2.39504 444.514 2.13495C444.73 1.87486 445.054 1.74481 445.486 1.74481C445.821 1.74481 446.121 1.87486 446.385 2.13495C446.649 2.3714 446.973 2.84429 447.357 3.55363L467.22 38.8789C467.484 39.3281 467.616 39.7892 467.616 40.2621C467.616 41.1606 467.208 41.6099 466.393 41.6099C466.081 41.6099 465.757 41.4916 465.421 41.2552C465.085 41.0424 464.749 40.6404 464.414 40.0493L458.296 29.1254H432.675L426.486 40.1912C425.982 41.137 425.334 41.6099 424.542 41.6099ZM433.718 27.0329H457.253L445.486 5.859L433.718 27.0329Z" fill="#F4F0FF"/>
<path d="M489.203 41.2552C488.579 41.2552 488.159 40.9951 487.943 40.4749C487.751 39.9311 487.655 39.3163 487.655 38.6306V4.08564H468.26C467.588 4.08564 466.976 4.062 466.424 4.01471C465.873 3.96742 465.597 3.64821 465.597 3.05709C465.597 2.3714 465.885 1.98126 466.46 1.88668C467.06 1.7921 467.66 1.74481 468.26 1.74481H510.038C510.734 1.74481 511.333 1.7921 511.837 1.88668C512.365 1.98126 512.629 2.3714 512.629 3.05709C512.629 3.64821 512.365 3.96742 511.837 4.01471C511.333 4.062 510.734 4.08564 510.038 4.08564H490.714V38.6306C490.714 39.3163 490.63 39.9311 490.462 40.4749C490.318 40.9951 489.898 41.2552 489.203 41.2552Z" fill="#F4F0FF"/>
<path d="M521.909 41.2552C521.333 41.2552 520.745 41.2197 520.145 41.1488C519.57 41.0779 519.282 40.6995 519.282 40.0138C519.282 39.4227 519.557 39.0917 520.109 39.0208C520.685 38.9498 521.285 38.9144 521.909 38.9144H534.755V4.08564H521.909C521.285 4.08564 520.685 4.05017 520.109 3.97924C519.557 3.9083 519.282 3.57728 519.282 2.98616C519.282 2.30046 519.57 1.92215 520.145 1.85121C520.745 1.78028 521.333 1.74481 521.909 1.74481H550.66C551.356 1.74481 551.956 1.78028 552.46 1.85121C552.987 1.92215 553.251 2.27682 553.251 2.91522C553.251 3.55363 552.987 3.9083 552.46 3.97924C551.956 4.05017 551.356 4.08564 550.66 4.08564H537.814V38.9144H550.66C551.356 38.9144 551.956 38.9498 552.46 39.0208C552.987 39.0917 553.251 39.4464 553.251 40.0848C553.251 40.7232 552.987 41.0779 552.46 41.1488C551.956 41.2197 551.356 41.2552 550.66 41.2552H521.909Z" fill="#F4F0FF"/>
<path d="M588.476 42C579.36 42 572.679 40.3094 568.433 36.9282C564.186 33.547 562.063 28.4043 562.063 21.5C562.063 14.5957 564.186 9.453 568.433 6.0718C572.679 2.6906 579.36 1 588.476 1C597.592 1 604.273 2.6906 608.52 6.0718C612.79 9.453 614.925 14.5957 614.925 21.5C614.925 28.4043 612.79 33.547 608.52 36.9282C604.273 40.3094 597.592 42 588.476 42ZM588.476 39.6592C596.345 39.6592 602.21 38.2878 606.073 35.545C609.935 32.7785 611.866 28.0969 611.866 21.5C611.866 14.9031 609.935 10.2333 606.073 7.49048C602.21 4.72405 596.345 3.34083 588.476 3.34083C580.607 3.34083 574.742 4.72405 570.879 7.49048C567.041 10.2333 565.122 14.9031 565.122 21.5C565.122 28.0969 567.041 32.7785 570.879 35.545C574.742 38.2878 580.607 39.6592 588.476 39.6592Z" fill="#F4F0FF"/>
<path d="M631.15 41.2552C630.454 41.2552 630.01 41.0187 629.818 40.5458C629.65 40.0493 629.566 39.4582 629.566 38.7725V4.05017C629.566 2.5842 630.058 1.85121 631.042 1.85121C631.641 1.85121 632.337 2.20588 633.129 2.91522L669.941 36.7154V4.44031C669.941 3.75461 670.013 3.13985 670.157 2.59602C670.325 2.02855 670.769 1.74481 671.489 1.74481C672.112 1.74481 672.52 2.01672 672.712 2.56055C672.904 3.08074 673 3.70732 673 4.44031V38.9853C673 40.4986 672.592 41.2552 671.777 41.2552C671.225 41.2552 670.541 40.8887 669.725 40.1557L632.625 6.2846V38.7725C632.625 39.4582 632.517 40.0493 632.301 40.5458C632.109 41.0187 631.725 41.2552 631.15 41.2552Z" fill="#F4F0FF"/>
<path d="M27.9886 42C19.0644 42 12.3352 40.4276 7.80112 37.2829C3.26704 34.1145 1 28.8535 1 21.5C1 14.1465 3.26704 8.89735 7.80112 5.7526C12.3352 2.5842 19.0644 1 27.9886 1C31.0833 1 34.106 1.28374 37.0568 1.85121C40.0075 2.39504 42.9822 3.28172 45.981 4.51125C46.7007 4.81863 47.0605 5.26788 47.0605 5.859C47.0605 6.56834 46.6767 6.92301 45.909 6.92301C45.7411 6.92301 45.5132 6.8639 45.2253 6.74567C42.4665 5.61073 39.5997 4.75952 36.6249 4.19204C33.6502 3.62457 30.7714 3.34083 27.9886 3.34083C19.4482 3.34083 13.3188 4.78316 9.60036 7.66782C5.90592 10.5288 4.05871 15.1396 4.05871 21.5C4.05871 27.8604 5.90592 32.483 9.60036 35.3676C13.3188 38.2287 19.4482 39.6592 27.9886 39.6592C30.7714 39.6592 33.6502 39.3754 36.6249 38.808C39.5997 38.2405 42.4665 37.3893 45.2253 36.2543C45.5132 36.1597 45.7291 36.1125 45.873 36.1125C46.6887 36.1125 47.0965 36.4671 47.0965 37.1765C47.0965 37.7439 46.7247 38.1814 45.981 38.4888C42.9822 39.7183 40.0075 40.6168 37.0568 41.1843C34.106 41.7281 31.0833 42 27.9886 42Z" stroke="#F4F0FF" strokeWidth="2" mask="url(#path-1-outside-1_246_4090)"/>
<path d="M84.8762 42C75.7601 42 69.0789 40.3094 64.8327 36.9282C60.5865 33.547 58.4634 28.4043 58.4634 21.5C58.4634 14.5957 60.5865 9.453 64.8327 6.0718C69.0789 2.6906 75.7601 1 84.8762 1C93.9924 1 100.674 2.6906 104.92 6.0718C109.19 9.453 111.325 14.5957 111.325 21.5C111.325 28.4043 109.19 33.547 104.92 36.9282C100.674 40.3094 93.9924 42 84.8762 42ZM84.8762 39.6592C92.7449 39.6592 98.6104 38.2878 102.473 35.545C106.335 32.7785 108.266 28.0969 108.266 21.5C108.266 14.9031 106.335 10.2333 102.473 7.49048C98.6104 4.72405 92.7449 3.34083 84.8762 3.34083C77.0075 3.34083 71.142 4.72405 67.2797 7.49048C63.4413 10.2333 61.5221 14.9031 61.5221 21.5C61.5221 28.0969 63.4413 32.7785 67.2797 35.545C71.142 38.2878 77.0075 39.6592 84.8762 39.6592Z" stroke="#F4F0FF" strokeWidth="2" mask="url(#path-1-outside-1_246_4090)"/>
<path d="M127.55 41.2552C126.854 41.2552 126.41 41.0187 126.218 40.5458C126.05 40.0493 125.967 39.4582 125.967 38.7725V4.05017C125.967 2.5842 126.458 1.85121 127.442 1.85121C128.042 1.85121 128.737 2.20588 129.529 2.91522L166.341 36.7154V4.44031C166.341 3.75461 166.413 3.13985 166.557 2.59602C166.725 2.02855 167.169 1.74481 167.889 1.74481C168.513 1.74481 168.92 2.01672 169.112 2.56055C169.304 3.08074 169.4 3.70732 169.4 4.44031V38.9853C169.4 40.4986 168.992 41.2552 168.177 41.2552C167.625 41.2552 166.941 40.8887 166.126 40.1557L129.025 6.2846V38.7725C129.025 39.4582 128.917 40.0493 128.701 40.5458C128.509 41.0187 128.126 41.2552 127.55 41.2552Z" stroke="#F4F0FF" strokeWidth="2" mask="url(#path-1-outside-1_246_4090)"/>
<path d="M209.447 41.9645C206.04 41.9645 202.67 41.7517 199.335 41.3261C196.025 40.9005 193.086 40.3803 190.519 39.7656C187.976 39.1508 186.129 38.5833 184.977 38.0631C184.33 37.7558 184.006 37.2947 184.006 36.6799C184.006 35.9942 184.318 35.6514 184.941 35.6514C185.109 35.6514 185.277 35.6869 185.445 35.7578C186.693 36.2543 188.624 36.81 191.239 37.4247C193.854 38.0159 196.804 38.536 200.091 38.9853C203.401 39.4109 206.7 39.6237 209.987 39.6237C213.177 39.6237 216.128 39.34 218.839 38.7725C221.574 38.1814 223.769 37.2001 225.424 35.8287C227.079 34.4573 227.907 32.5894 227.907 30.2249C227.907 28.357 227.283 26.9028 226.036 25.8625C224.788 24.7984 223.109 24.0063 220.998 23.4862C218.887 22.966 216.512 22.5995 213.873 22.3867C211.258 22.1739 208.547 22.0202 205.74 21.9256C202.934 21.8074 200.211 21.6182 197.572 21.3581C194.957 21.098 192.594 20.6606 190.483 20.0458C188.372 19.4311 186.693 18.5089 185.445 17.2794C184.198 16.0499 183.574 14.4066 183.574 12.3495C183.574 10.0796 184.186 8.21165 185.409 6.74567C186.657 5.25605 188.324 4.09746 190.411 3.2699C192.498 2.41869 194.837 1.82757 197.428 1.49654C200.019 1.16551 202.67 1 205.381 1C208.355 1 211.246 1.17734 214.053 1.53201C216.86 1.86303 219.379 2.30046 221.61 2.84429C223.841 3.38812 225.568 3.94377 226.792 4.51125C227.175 4.67676 227.367 4.99596 227.367 5.46886C227.367 5.79988 227.247 6.10727 227.007 6.391C226.792 6.67474 226.48 6.81661 226.072 6.81661C225.832 6.81661 225.628 6.76932 225.46 6.67474C222.941 5.63437 219.895 4.81863 216.32 4.22751C212.746 3.63639 209.147 3.34083 205.525 3.34083C202.214 3.34083 199.119 3.60092 196.24 4.12111C193.362 4.64129 191.035 5.53979 189.259 6.81661C187.508 8.09343 186.633 9.86678 186.633 12.1367C186.633 13.7682 187.256 15.0332 188.504 15.9317C189.751 16.8302 191.431 17.504 193.542 17.9533C195.653 18.3789 198.016 18.6863 200.631 18.8754C203.27 19.0409 205.992 19.2065 208.799 19.372C211.606 19.5138 214.317 19.7503 216.932 20.0813C219.571 20.4123 221.946 20.9443 224.057 21.6773C226.168 22.4103 227.847 23.4625 229.095 24.8339C230.342 26.2053 230.966 28.0023 230.966 30.2249C230.966 32.4948 230.366 34.3864 229.167 35.8997C227.991 37.4129 226.384 38.6188 224.345 39.5173C222.305 40.3922 220.002 41.0187 217.436 41.3971C214.869 41.7754 212.206 41.9645 209.447 41.9645Z" stroke="#F4F0FF" strokeWidth="2" mask="url(#path-1-outside-1_246_4090)"/>
<path d="M262.916 41.2552C262.292 41.2552 261.872 40.9951 261.657 40.4749C261.465 39.9311 261.369 39.3163 261.369 38.6306V4.08564H241.973C241.301 4.08564 240.689 4.062 240.138 4.01471C239.586 3.96742 239.31 3.64821 239.31 3.05709C239.31 2.3714 239.598 1.98126 240.174 1.88668C240.773 1.7921 241.373 1.74481 241.973 1.74481H283.751C284.447 1.74481 285.047 1.7921 285.55 1.88668C286.078 1.98126 286.342 2.3714 286.342 3.05709C286.342 3.64821 286.078 3.96742 285.55 4.01471C285.047 4.062 284.447 4.08564 283.751 4.08564H264.427V38.6306C264.427 39.3163 264.343 39.9311 264.175 40.4749C264.031 40.9951 263.612 41.2552 262.916 41.2552Z" stroke="#F4F0FF" strokeWidth="2" mask="url(#path-1-outside-1_246_4090)"/>
<path d="M307.461 42C305.566 42 303.634 41.8227 301.667 41.468C299.7 41.137 298.045 40.7114 296.701 40.1912C295.382 39.6473 294.722 39.0917 294.722 38.5242C294.722 38.2641 294.842 38.0277 295.082 37.8149C295.322 37.5784 295.634 37.5075 296.018 37.6021C296.857 37.7676 297.733 38.0159 298.645 38.3469C299.556 38.6779 300.696 38.9853 302.063 39.269C303.454 39.5291 305.254 39.6592 307.461 39.6592C312.043 39.6592 315.258 38.808 317.105 37.1055C318.976 35.4031 319.912 33.2042 319.912 30.5087C319.912 28.8299 319.552 27.2693 318.832 25.827C318.112 24.3847 316.817 23.2261 314.946 22.3512C313.074 21.4764 310.412 21.0389 306.957 21.0389H301.847C301.415 21.0389 301.091 20.9207 300.876 20.6843C300.684 20.4478 300.588 20.1877 300.588 19.904C300.588 19.6202 300.684 19.3602 300.876 19.1237C301.091 18.8873 301.415 18.769 301.847 18.769H306.633C309.872 18.769 312.379 18.4025 314.154 17.6695C315.929 16.9366 317.153 15.9671 317.824 14.7612C318.52 13.5554 318.868 12.2549 318.868 10.8599C318.868 9.58305 318.556 8.36534 317.932 7.20675C317.309 6.02451 316.181 5.05508 314.55 4.29844C312.918 3.54181 310.591 3.16349 307.569 3.16349C304.978 3.16349 302.903 3.35265 301.343 3.73097C299.808 4.08564 298.345 4.58218 296.953 5.22059C296.617 5.3861 296.306 5.46886 296.018 5.46886C295.658 5.46886 295.37 5.36246 295.154 5.14965C294.962 4.93685 294.866 4.71223 294.866 4.47578C294.866 3.88466 295.31 3.3763 296.198 2.95069C297.085 2.50144 298.201 2.13495 299.544 1.85121C300.912 1.56747 302.303 1.35467 303.718 1.2128C305.134 1.07093 306.381 1 307.461 1C311.059 1 313.866 1.48472 315.881 2.45415C317.92 3.39994 319.348 4.61765 320.163 6.10727C321.003 7.57324 321.423 9.09833 321.423 10.6825C321.423 11.9357 321.183 13.1889 320.703 14.442C320.223 15.6952 319.36 16.8065 318.112 17.776C316.889 18.7217 315.15 19.4074 312.895 19.833C316.037 20.3532 318.4 21.5591 319.983 23.4507C321.567 25.3423 322.359 27.7304 322.359 30.6151C322.359 32.7431 321.855 34.6701 320.847 36.3962C319.84 38.1223 318.232 39.4937 316.025 40.5104C313.842 41.5035 310.987 42 307.461 42Z" stroke="#F4F0FF" strokeWidth="2" mask="url(#path-1-outside-1_246_4090)"/>
<path d="M337.144 41.2552C336.4 41.2552 335.968 41.1961 335.848 41.0779C335.729 40.936 335.669 40.5577 335.669 39.9429V4.05017C335.669 3.43541 335.777 2.9034 335.992 2.45415C336.208 1.98126 336.664 1.74481 337.36 1.74481C337.936 1.74481 338.307 1.99308 338.475 2.48962C338.643 2.96251 338.727 3.4827 338.727 4.05017V38.9144H369.638C370.118 38.9144 370.478 39.0444 370.718 39.3045C370.982 39.5409 371.114 39.801 371.114 40.0848C371.114 40.3922 370.982 40.6641 370.718 40.9005C370.478 41.137 370.118 41.2552 369.638 41.2552H337.144Z" stroke="#F4F0FF" strokeWidth="2" mask="url(#path-1-outside-1_246_4090)"/>
<path d="M382.804 41.2552C382.061 41.2552 381.629 41.1961 381.509 41.0779C381.389 40.936 381.329 40.5577 381.329 39.9429V4.05017C381.329 3.43541 381.437 2.9034 381.653 2.45415C381.869 1.98126 382.325 1.74481 383.02 1.74481C383.596 1.74481 383.968 1.99308 384.136 2.48962C384.304 2.96251 384.388 3.4827 384.388 4.05017V38.9144H415.299C415.778 38.9144 416.138 39.0444 416.378 39.3045C416.642 39.5409 416.774 39.801 416.774 40.0848C416.774 40.3922 416.642 40.6641 416.378 40.9005C416.138 41.137 415.778 41.2552 415.299 41.2552H382.804Z" stroke="#F4F0FF" strokeWidth="2" mask="url(#path-1-outside-1_246_4090)"/>
<path d="M424.542 41.6099C423.847 41.6099 423.463 41.3025 423.391 40.6877C423.319 40.0493 423.451 39.4345 423.787 38.8434L443.614 3.55363C443.998 2.86794 444.298 2.39504 444.514 2.13495C444.73 1.87486 445.054 1.74481 445.486 1.74481C445.821 1.74481 446.121 1.87486 446.385 2.13495C446.649 2.3714 446.973 2.84429 447.357 3.55363L467.22 38.8789C467.484 39.3281 467.616 39.7892 467.616 40.2621C467.616 41.1606 467.208 41.6099 466.393 41.6099C466.081 41.6099 465.757 41.4916 465.421 41.2552C465.085 41.0424 464.749 40.6404 464.414 40.0493L458.296 29.1254H432.675L426.486 40.1912C425.982 41.137 425.334 41.6099 424.542 41.6099ZM433.718 27.0329H457.253L445.486 5.859L433.718 27.0329Z" stroke="#F4F0FF" strokeWidth="2" mask="url(#path-1-outside-1_246_4090)"/>
<path d="M489.203 41.2552C488.579 41.2552 488.159 40.9951 487.943 40.4749C487.751 39.9311 487.655 39.3163 487.655 38.6306V4.08564H468.26C467.588 4.08564 466.976 4.062 466.424 4.01471C465.873 3.96742 465.597 3.64821 465.597 3.05709C465.597 2.3714 465.885 1.98126 466.46 1.88668C467.06 1.7921 467.66 1.74481 468.26 1.74481H510.038C510.734 1.74481 511.333 1.7921 511.837 1.88668C512.365 1.98126 512.629 2.3714 512.629 3.05709C512.629 3.64821 512.365 3.96742 511.837 4.01471C511.333 4.062 510.734 4.08564 510.038 4.08564H490.714V38.6306C490.714 39.3163 490.63 39.9311 490.462 40.4749C490.318 40.9951 489.898 41.2552 489.203 41.2552Z" stroke="#F4F0FF" strokeWidth="2" mask="url(#path-1-outside-1_246_4090)"/>
<path d="M521.909 41.2552C521.333 41.2552 520.745 41.2197 520.145 41.1488C519.57 41.0779 519.282 40.6995 519.282 40.0138C519.282 39.4227 519.557 39.0917 520.109 39.0208C520.685 38.9498 521.285 38.9144 521.909 38.9144H534.755V4.08564H521.909C521.285 4.08564 520.685 4.05017 520.109 3.97924C519.557 3.9083 519.282 3.57728 519.282 2.98616C519.282 2.30046 519.57 1.92215 520.145 1.85121C520.745 1.78028 521.333 1.74481 521.909 1.74481H550.66C551.356 1.74481 551.956 1.78028 552.46 1.85121C552.987 1.92215 553.251 2.27682 553.251 2.91522C553.251 3.55363 552.987 3.9083 552.46 3.97924C551.956 4.05017 551.356 4.08564 550.66 4.08564H537.814V38.9144H550.66C551.356 38.9144 551.956 38.9498 552.46 39.0208C552.987 39.0917 553.251 39.4464 553.251 40.0848C553.251 40.7232 552.987 41.0779 552.46 41.1488C551.956 41.2197 551.356 41.2552 550.66 41.2552H521.909Z" stroke="#F4F0FF" strokeWidth="2" mask="url(#path-1-outside-1_246_4090)"/>
<path d="M588.476 42C579.36 42 572.679 40.3094 568.433 36.9282C564.186 33.547 562.063 28.4043 562.063 21.5C562.063 14.5957 564.186 9.453 568.433 6.0718C572.679 2.6906 579.36 1 588.476 1C597.592 1 604.273 2.6906 608.52 6.0718C612.79 9.453 614.925 14.5957 614.925 21.5C614.925 28.4043 612.79 33.547 608.52 36.9282C604.273 40.3094 597.592 42 588.476 42ZM588.476 39.6592C596.345 39.6592 602.21 38.2878 606.073 35.545C609.935 32.7785 611.866 28.0969 611.866 21.5C611.866 14.9031 609.935 10.2333 606.073 7.49048C602.21 4.72405 596.345 3.34083 588.476 3.34083C580.607 3.34083 574.742 4.72405 570.879 7.49048C567.041 10.2333 565.122 14.9031 565.122 21.5C565.122 28.0969 567.041 32.7785 570.879 35.545C574.742 38.2878 580.607 39.6592 588.476 39.6592Z" stroke="#F4F0FF" strokeWidth="2" mask="url(#path-1-outside-1_246_4090)"/>
<path d="M631.15 41.2552C630.454 41.2552 630.01 41.0187 629.818 40.5458C629.65 40.0493 629.566 39.4582 629.566 38.7725V4.05017C629.566 2.5842 630.058 1.85121 631.042 1.85121C631.641 1.85121 632.337 2.20588 633.129 2.91522L669.941 36.7154V4.44031C669.941 3.75461 670.013 3.13985 670.157 2.59602C670.325 2.02855 670.769 1.74481 671.489 1.74481C672.112 1.74481 672.52 2.01672 672.712 2.56055C672.904 3.08074 673 3.70732 673 4.44031V38.9853C673 40.4986 672.592 41.2552 671.777 41.2552C671.225 41.2552 670.541 40.8887 669.725 40.1557L632.625 6.2846V38.7725C632.625 39.4582 632.517 40.0493 632.301 40.5458C632.109 41.0187 631.725 41.2552 631.15 41.2552Z" stroke="#F4F0FF" strokeWidth="2" mask="url(#path-1-outside-1_246_4090)"/>
</svg>
